<svg viewBox="76 62 260 48" xmlns="http://www.w3.org/2000/svg" fill="#ffffff">
  <path d="M104.57,105.47l-.55-6.69h-10.8l-2.91,6.69h-11.95l17.97-37.59h15.07l5.1,37.59h-11.95ZM99.59,83.66l-3.01,6.91h6.8l-.55-6.91-.11-7.4h-.38l-2.74,7.4Z"/>
  <path d="M123.64,84.87h-2.9l1.59-8.82h2.91l2.74-6.14h8.82l-1.1,6.14h7.45l-1.59,8.82h-7.45l-1.64,9.43c-.18,1.1-.17,1.77.03,2.03.2.26.85.38,1.95.38,1.17,0,2.63-.09,4.38-.27l-.6,8.71c-3.22.58-6.25.88-9.1.88-3.54,0-5.82-.82-6.82-2.47-1-1.64-1.09-4.8-.25-9.48l1.59-9.21Z"/>
  <path d="M151.87,105.47l6.62-37.59h11.63l-4.95,28.11h13.76l-1.7,9.48h-25.36Z"/>
  <path d="M199.27,75.17c5.44,0,8.97,1.21,10.58,3.62,1.61,2.41,1.95,6.38,1.04,11.89-.51,2.78-1.12,5.07-1.81,6.88-.69,1.81-1.66,3.4-2.9,4.77-1.24,1.37-2.81,2.36-4.71,2.96-1.9.6-4.26.9-7.07.9-5.44,0-8.96-1.21-10.55-3.62-1.59-2.41-1.89-6.38-.9-11.89.91-5.59,2.51-9.57,4.79-11.95,2.28-2.37,6.13-3.56,11.54-3.56ZM199.82,92.49l.6-3.62c.26-1.68.22-2.82-.11-3.42s-1.08-.9-2.25-.9h-.33c-1.21,0-2.09.31-2.66.93-.57.62-.98,1.75-1.23,3.4l-.6,3.62c-.26,1.68-.22,2.82.11,3.42.33.6,1.08.9,2.25.9h.33c1.21,0,2.09-.31,2.66-.93.57-.62.98-1.75,1.23-3.4Z"/>
  <path d="M223.88,89.14l-.55,3.12c-.44,1.9-.47,3.15-.08,3.75.38.6,1.56.9,3.53.9.88,0,3.27-.37,7.18-1.1l.16,8.44c-4.13,1.17-7.95,1.75-11.45,1.75s-6.08-.56-7.73-1.67-2.58-2.81-2.79-5.1c-.22-2.28-.02-5.2.6-8.74.51-2.85,1.07-5.14,1.67-6.88.6-1.73,1.45-3.28,2.55-4.63,1.1-1.35,2.51-2.31,4.25-2.88s3.94-.85,6.6-.85c3.14,0,6.72.33,10.74.99l-2.69,8.82c-2.59-.36-4.71-.55-6.36-.55-2.16,0-3.54.27-4.17.82s-1.11,1.81-1.48,3.78Z"/>
  <path d="M254.95,75.5c4.31,0,8.89.51,13.73,1.54l-5.01,28.44h-9.1l.22-4.38c-1.54,1.79-3.04,3.1-4.52,3.92s-3.22,1.23-5.23,1.23c-3,0-4.95-1.22-5.86-3.67-.91-2.45-.91-6.32,0-11.62.95-5.48,2.6-9.43,4.96-11.84s5.96-3.62,10.82-3.62ZM255.54,93.16l1.5-8.22c-1.19-.12-2.18-.19-2.98-.19-1.32,0-2.21.32-2.69.96s-.88,1.85-1.21,3.64l-.44,2.74c-.29,1.72-.36,2.79-.19,3.23.17.44.65.66,1.45.66.99,0,2.5-.94,4.55-2.83Z"/>
  <path d="M331.33,91.17c1.16,1.35,1.53,3.23,1.09,5.65-.58,3.32-1.96,5.69-4.14,7.09-2.17,1.41-5.94,2.11-11.31,2.11-2.44,0-13.07.18-19.58-.08-2.01.4-18.33.08-20.28.08-3.98,0-6.4-.84-7.26-2.52-.86-1.68-.83-4.71.08-9.1l5.35-30.03h10.52l-5.38,30.48c-.14.8-.14,1.32,0,1.56.15.23.61.35,1.37.35.29,0,8.89.2,15.71.33,2.11.04,4.05.08,5.52.09h.08c.81.04,1.67.08,2.54.12,5.21.22,10.9.39,11.93.39,1.39,0,2.32-.06,2.8-.19.47-.13.73-.37.76-.74.08-.36-.05-.67-.38-.9-.33-.24-.95-.58-1.86-1.02-.19-.07-.32-.13-.39-.16l-2.85-1.32c-1.02-.47-1.83-.89-2.41-1.26-.58-.36-1.26-.91-2.03-1.64-.76-.73-1.28-1.65-1.56-2.74-.27-1.1-.28-2.38-.03-3.84.59-3.21,1.97-5.45,4.14-6.71,2.18-1.26,5.64-1.89,10.39-1.89,3.21,0,6.65.4,10.3,1.2l-2.36,7.9c-3.65-.52-6.34-.77-8.05-.77-1.25,0-2.08.06-2.5.19s-.66.41-.74.85c-.07.37.05.66.36.88.31.22.92.51,1.84.87l2.74,1.15c2.55,1.06,4.42,2.27,5.59,3.62Z"/>
</svg>
